<svg width="90" height="90" viewBox="0 0 90 90" fill="none" xmlns="http://www.w3.org/2000/svg">
<rect width="90" height="90" rx="20" fill="#F2B8EC"/>
<path d="M51.4786 58V37.9939H35V58H38.8383V56.8131C38.8383 55.3207 40.0087 54.1043 41.4259 54.1043H45.0524C46.4715 54.1043 47.6499 55.3207 47.6499 56.8131V58H51.4786ZM39.55 50.8478C39.55 50.954 39.5309 51.0644 39.4924 51.1624C39.454 51.2604 39.4001 51.351 39.329 51.4263C39.2579 51.5013 39.172 51.5581 39.0787 51.5987C38.9857 51.6393 38.8814 51.6594 38.7804 51.6594H36.9624C36.8617 51.6594 36.7574 51.6393 36.6641 51.5987C36.5712 51.5581 36.4853 51.5013 36.4142 51.4263C36.3427 51.3513 36.2892 51.2608 36.2507 51.1624C36.2122 51.0644 36.1928 50.9543 36.1928 50.8478V48.9506C36.1928 48.8445 36.2119 48.7344 36.2507 48.636C36.2892 48.538 36.3431 48.4474 36.4142 48.3721C36.4853 48.2971 36.5712 48.2403 36.6641 48.1997C36.7574 48.1591 36.8617 48.1387 36.9624 48.1387H38.7804C38.8811 48.1387 38.9854 48.1588 39.0787 48.1997C39.1717 48.2403 39.2576 48.2971 39.329 48.3721C39.4001 48.4474 39.454 48.5377 39.4924 48.636C39.5309 48.7341 39.55 48.8441 39.55 48.9506V50.8478ZM39.55 45.2374C39.55 45.3435 39.5309 45.4536 39.4924 45.5519C39.454 45.65 39.4001 45.7406 39.329 45.8155C39.2579 45.8909 39.172 45.9473 39.0787 45.9879C38.9857 46.0285 38.8814 46.049 38.7804 46.049H36.9624C36.8617 46.049 36.7574 46.0288 36.6641 45.9879C36.5712 45.9473 36.4853 45.8905 36.4142 45.8155C36.3427 45.7406 36.2892 45.65 36.2507 45.5519C36.2122 45.4539 36.1928 45.3435 36.1928 45.2374V43.3301C36.1928 43.2239 36.2119 43.1239 36.2507 43.0256C36.2892 42.9275 36.3431 42.837 36.4142 42.7616C36.4853 42.6866 36.5712 42.6198 36.6641 42.5789C36.7574 42.5383 36.8617 42.5178 36.9624 42.5178H38.7804C38.8811 42.5178 38.9854 42.538 39.0787 42.5789C39.1717 42.6194 39.2576 42.6863 39.329 42.7616C39.4001 42.8366 39.454 42.9272 39.4924 43.0256C39.5309 43.1236 39.55 43.2236 39.55 43.3301V45.2374ZM41.5607 43.2389C41.5607 43.1327 41.5798 43.0226 41.6186 42.9243C41.6571 42.8262 41.7109 42.7357 41.7821 42.6603C41.8535 42.5854 41.939 42.5285 42.0323 42.488C42.1253 42.4474 42.2299 42.4273 42.3306 42.4273H43.9562C44.0569 42.4273 44.1613 42.4474 44.2545 42.488C44.3475 42.5285 44.4334 42.5854 44.5048 42.6603C44.5759 42.7353 44.6298 42.8259 44.6682 42.9243C44.7067 43.0223 44.7261 43.1324 44.7261 43.2389V44.9432C44.7261 45.0494 44.707 45.1494 44.6682 45.2474C44.6298 45.3455 44.5759 45.436 44.5048 45.5114C44.4337 45.5863 44.3478 45.6532 44.2545 45.6938C44.1616 45.7344 44.0569 45.7548 43.9562 45.7548H42.3306C42.2299 45.7548 42.1253 45.7347 42.0323 45.6938C41.9394 45.6532 41.8535 45.5863 41.7821 45.5114C41.7109 45.4364 41.6571 45.3458 41.6186 45.2474C41.5801 45.1494 41.5607 45.0494 41.5607 44.9432V43.2389ZM44.7735 50.6043C44.7735 50.7105 44.7544 50.8105 44.7157 50.9088C44.6772 51.0069 44.6233 51.0975 44.5522 51.1725C44.4811 51.2478 44.3952 51.3143 44.3022 51.3552C44.209 51.3958 44.1046 51.4159 44.004 51.4159H42.33C42.2293 51.4159 42.1247 51.3958 42.0317 51.3552C41.9387 51.3147 41.8529 51.2478 41.7814 51.1725C41.7103 51.0975 41.6565 51.0069 41.618 50.9088C41.5795 50.8108 41.5601 50.7108 41.5601 50.6043V48.8493C41.5601 48.7432 41.5792 48.6331 41.618 48.5347C41.6565 48.4367 41.7103 48.3461 41.7814 48.2711C41.8529 48.1961 41.9384 48.1393 42.0317 48.0987C42.1247 48.0582 42.2293 48.0377 42.33 48.0377H44.004C44.1046 48.0377 44.209 48.0578 44.3022 48.0987C44.3952 48.1393 44.4811 48.1961 44.5522 48.2711C44.6236 48.3461 44.6772 48.4367 44.7157 48.5347C44.7541 48.6331 44.7735 48.7432 44.7735 48.8493V50.6043ZM46.9283 43.3301C46.9283 43.2239 46.9474 43.1239 46.9862 43.0256C47.0247 42.9275 47.0785 42.837 47.1496 42.7616C47.2208 42.6866 47.3066 42.6198 47.3996 42.5789C47.4929 42.5383 47.5972 42.5178 47.6979 42.5178H49.5159C49.6166 42.5178 49.7209 42.538 49.8142 42.5789C49.9072 42.6194 49.993 42.6863 50.0645 42.7616C50.1356 42.8366 50.1894 42.9272 50.2279 43.0256C50.2664 43.1236 50.2855 43.2236 50.2855 43.3301V45.2374C50.2855 45.3435 50.2664 45.4536 50.2279 45.5519C50.1894 45.65 50.1356 45.7406 50.0645 45.8155C49.9934 45.8909 49.9075 45.9473 49.8142 45.9879C49.7212 46.0285 49.6166 46.049 49.5159 46.049H47.6979C47.5972 46.049 47.4929 46.0288 47.3996 45.9879C47.3066 45.9473 47.2208 45.8905 47.1496 45.8155C47.0782 45.7406 47.0247 45.65 46.9862 45.5519C46.9477 45.4539 46.9283 45.3435 46.9283 45.2374V43.3301ZM47.3999 51.5984C47.3069 51.5578 47.2211 51.501 47.15 51.426C47.0785 51.351 47.025 51.2604 46.9865 51.1621C46.948 51.064 46.9286 50.954 46.9286 50.8475V48.9506C46.9286 48.8445 46.9477 48.7344 46.9865 48.636C47.025 48.538 47.0788 48.4474 47.15 48.3721C47.2211 48.2971 47.3069 48.2403 47.3999 48.1997C47.4932 48.1591 47.5975 48.1387 47.6982 48.1387H49.5162C49.6169 48.1387 49.7212 48.1588 49.8145 48.1997C49.9075 48.2403 49.9934 48.2971 50.0648 48.3721C50.1359 48.4474 50.1897 48.5377 50.2282 48.636C50.2667 48.7341 50.2858 48.8441 50.2858 48.9506V50.8478C50.2858 50.954 50.2667 51.0644 50.2282 51.1624C50.1897 51.2604 50.1359 51.351 50.0648 51.4263C49.9937 51.5013 49.9078 51.5581 49.8145 51.5987C49.7215 51.6393 49.6169 51.6594 49.5162 51.6594H47.6979C47.5972 51.6594 47.4929 51.639 47.3999 51.5984Z" fill="white"/>
<path d="M54.9528 33H39.0815L36.0297 36.3698H51.8902L54.9528 33Z" fill="white"/>
<path d="M53.0172 56.7846L56 53.4907V34.1937L53.0172 37.4758V56.7846Z" fill="white"/>
<path d="M41.4243 55.7239C40.8407 55.7239 40.3747 56.2164 40.3747 56.8147V57.9974H46.1064V56.8147C46.1064 56.2164 45.6416 55.7239 45.0536 55.7239H41.4243Z" fill="white"/>
</svg>
