<svg width="90" height="90" viewBox="0 0 90 90" fill="none" xmlns="http://www.w3.org/2000/svg">
<rect width="90" height="90" rx="20" fill="#4DDFFD"/>
<path d="M39.9373 56.4923L38.4188 58L33 52.7577L36.8823 48.9311C37.6686 48.1505 38.6607 47.6059 39.7447 47.3599C40.8287 47.114 41.9606 47.1767 43.0103 47.5408L43.8634 47.8367H49.0972C49.3186 47.8366 49.5377 47.8807 49.7415 47.9663C49.9454 48.0519 50.1299 48.1773 50.284 48.3351C50.4381 48.4928 50.5587 48.6797 50.6386 48.8847C50.7186 49.0896 50.7562 49.3084 50.7493 49.5281C50.7242 49.9623 50.5311 50.37 50.2103 50.6662C49.8895 50.9623 49.4658 51.124 49.0278 51.1173H45.888C45.7177 51.1173 45.5543 51.1845 45.4338 51.3041C45.3134 51.4237 45.2457 51.586 45.2457 51.7551C45.2457 51.9242 45.3134 52.0865 45.4338 52.2061C45.5543 52.3257 45.7177 52.3929 45.888 52.3929H49.0381C49.8065 52.3966 50.5469 52.1068 51.106 51.5835C51.6652 51.0602 52.0002 50.3434 52.0417 49.5816C52.0417 49.5689 52.0417 49.5561 52.0417 49.5408L54.9554 46.2832C55.2514 45.9422 55.6683 45.7275 56.1195 45.6838C56.5707 45.6401 57.0216 45.7707 57.3783 46.0485C57.5549 46.1936 57.7004 46.3724 57.8062 46.5743C57.912 46.7762 57.976 46.997 57.9944 47.2239C58.0129 47.4507 57.9854 47.6789 57.9135 47.895C57.8417 48.1111 57.727 48.3108 57.5762 48.4821L51.7591 55.1148C51.3751 55.5517 50.9012 55.9017 50.3693 56.1411C49.8373 56.3806 49.2599 56.5038 48.6758 56.5026L39.9373 56.4923ZM51.9492 42.0714C51.9492 41.7501 51.8206 41.4418 51.5918 41.2146C51.3629 40.9874 51.0525 40.8597 50.7288 40.8597H48.9302V39.074C48.9158 38.7626 48.7811 38.4686 48.554 38.2533C48.3269 38.038 48.025 37.9178 47.711 37.9178C47.397 37.9178 47.0951 38.038 46.8681 38.2533C46.641 38.4686 46.5063 38.7626 46.4918 39.074V40.8597H44.6933C44.5285 40.8522 44.3638 40.8779 44.2093 40.9354C44.0548 40.9928 43.9136 41.0808 43.7943 41.1939C43.675 41.307 43.5801 41.443 43.5152 41.5936C43.4503 41.7442 43.4168 41.9063 43.4168 42.0702C43.4168 42.234 43.4503 42.3961 43.5152 42.5467C43.5801 42.6973 43.675 42.8333 43.7943 42.9464C43.9136 43.0596 44.0548 43.1475 44.2093 43.2049C44.3638 43.2624 44.5285 43.2881 44.6933 43.2806H46.4918V45.0663C46.5063 45.3777 46.641 45.6717 46.8681 45.887C47.0951 46.1023 47.397 46.2225 47.711 46.2225C48.025 46.2225 48.3269 46.1023 48.554 45.887C48.7811 45.6717 48.9158 45.3777 48.9302 45.0663V43.2806H50.7288C51.052 43.2806 51.362 43.1533 51.5909 42.9266C51.8197 42.6999 51.9485 42.3924 51.9492 42.0714V42.0714ZM40.2482 35.3571V36.6735H38.925C38.6865 36.6735 38.4578 36.7675 38.2891 36.935C38.1205 37.1024 38.0257 37.3295 38.0257 37.5663C38.0257 37.8031 38.1205 38.0302 38.2891 38.1977C38.4578 38.3651 38.6865 38.4592 38.925 38.4592H40.2508V39.7755C40.2508 40.0123 40.3456 40.2394 40.5142 40.4069C40.6829 40.5743 40.9116 40.6684 41.1501 40.6684C41.3886 40.6684 41.6173 40.5743 41.786 40.4069C41.9546 40.2394 42.0494 40.0123 42.0494 39.7755V38.4541H43.3675C43.606 38.4541 43.8347 38.36 44.0034 38.1926C44.172 38.0251 44.2668 37.798 44.2668 37.5612C44.2668 37.3244 44.172 37.0973 44.0034 36.9299C43.8347 36.7624 43.606 36.6684 43.3675 36.6684H42.0417V35.3571C42.0417 35.1203 41.9469 34.8932 41.7783 34.7258C41.6096 34.5584 41.3809 34.4643 41.1424 34.4643C40.9039 34.4643 40.6751 34.5584 40.5065 34.7258C40.3378 34.8932 40.2431 35.1203 40.2431 35.3571H40.2482ZM51.5921 33C51.3876 33 51.1916 33.0806 51.047 33.2242C50.9025 33.3677 50.8213 33.5623 50.8213 33.7653V34.898H49.6805C49.476 34.898 49.28 34.9786 49.1354 35.1221C48.9909 35.2656 48.9096 35.4603 48.9096 35.6633C48.9096 35.8662 48.9909 36.0609 49.1354 36.2044C49.28 36.3479 49.476 36.4286 49.6805 36.4286H50.8213V37.5612C50.8213 37.7642 50.9025 37.9589 51.047 38.1024C51.1916 38.2459 51.3876 38.3265 51.5921 38.3265C51.7965 38.3265 51.9926 38.2459 52.1371 38.1024C52.2817 37.9589 52.3629 37.7642 52.3629 37.5612V36.4286H53.5037C53.6049 36.4286 53.7052 36.4088 53.7987 36.3703C53.8922 36.3319 53.9772 36.2755 54.0488 36.2044C54.1203 36.1334 54.1771 36.049 54.2158 35.9561C54.2546 35.8633 54.2745 35.7638 54.2745 35.6633C54.2745 35.5628 54.2546 35.4632 54.2158 35.3704C54.1771 35.2775 54.1203 35.1932 54.0488 35.1221C53.9772 35.051 53.8922 34.9947 53.7987 34.9562C53.7052 34.9178 53.6049 34.898 53.5037 34.898H52.3629V33.7653C52.3629 33.5623 52.2817 33.3677 52.1371 33.2242C51.9926 33.0806 51.7965 33 51.5921 33V33Z" fill="white"/>
</svg>
