<svg width="90" height="90" viewBox="0 0 90 90" fill="none" xmlns="http://www.w3.org/2000/svg">
<rect width="90" height="90" rx="20" fill="#9672FF"/>
<path d="M57.2929 58.7071C57.6834 59.0976 58.3166 59.0976 58.7071 58.7071C59.0976 58.3166 59.0976 57.6834 58.7071 57.2929L57.2929 58.7071ZM58.7071 57.2929L51.3795 49.9653L49.9653 51.3795L57.2929 58.7071L58.7071 57.2929ZM52.6897 43.3448C52.6897 48.5058 48.5058 52.6897 43.3448 52.6897V54.6897C49.6104 54.6897 54.6897 49.6104 54.6897 43.3448H52.6897ZM43.3448 52.6897C38.1838 52.6897 34 48.5058 34 43.3448H32C32 49.6104 37.0793 54.6897 43.3448 54.6897V52.6897ZM34 43.3448C34 38.1838 38.1838 34 43.3448 34V32C37.0793 32 32 37.0793 32 43.3448H34ZM43.3448 34C48.5058 34 52.6897 38.1838 52.6897 43.3448H54.6897C54.6897 37.0793 49.6104 32 43.3448 32V34Z" fill="white"/>
</svg>
