<svg width="84" height="84" viewBox="0 0 84 84" fill="none" xmlns="http://www.w3.org/2000/svg">
<path d="M34.6152 22.9947V33.1761L35.3361 33.8969C35.5664 34.1271 41.1021 39.5394 51.8418 39.5394C62.5815 39.5394 68.1171 34.1271 68.3474 33.8968L69.0683 33.1759V22.9945L73.9902 21.0258V34.6175H78.9121V19.057L83.0775 17.3909L51.8418 4.89661L20.6061 17.3909L34.6152 22.9947ZM64.1465 31.0096C62.5798 32.1795 58.514 34.6175 51.8418 34.6175C45.1695 34.6175 41.1037 32.1795 39.5371 31.0096V24.9633L51.8418 29.8851L64.1465 24.9633V31.0096ZM69.8248 17.3909L51.8418 24.5841L33.8587 17.3909L51.8418 10.1978L69.8248 17.3909Z" fill="white"/>
<path d="M18.9645 21.4277L15.4842 17.9475L12.3355 21.0961C12.8815 12.0855 20.3838 4.92188 29.5291 4.92188V0C17.6502 0 7.92684 9.40029 7.40413 21.1526L4.19884 17.9475L0.71875 21.4277L9.84161 30.5506L18.9645 21.4277Z" fill="#FFD02A"/>
<path d="M83.2791 57.6502L74.1562 48.5273L65.0334 57.6502L68.5136 61.1305L71.6953 57.9488V61.8514C71.6953 71.3501 63.9675 79.0779 54.4688 79.0779V83.9998C66.6814 83.9998 76.6172 74.064 76.6172 61.8514V57.9488L79.799 61.1306L83.2791 57.6502Z" fill="#FFD02A"/>
<path d="M59.2246 69.0706V53.5101L63.39 51.8441L32.1543 39.3497L0.918579 51.8441L14.9277 57.4478V67.6292L15.6486 68.3501C15.8789 68.5803 21.4146 73.9925 32.1543 73.9925C42.894 73.9925 48.4296 68.5802 48.6599 68.3499L49.3808 67.629V57.4476L54.3027 55.4789V69.0706H59.2246ZM44.459 65.4627C42.8923 66.6327 38.8265 69.0706 32.1543 69.0706C25.482 69.0706 21.4162 66.6327 19.8496 65.4627V59.4164L32.1543 64.3383L44.459 59.4164V65.4627ZM32.1543 59.0372L14.1712 51.8441L32.1543 44.6509L50.1373 51.8441L32.1543 59.0372Z" fill="white"/>
</svg>
