<svg width="80" height="84" viewBox="0 0 80 84" fill="none" xmlns="http://www.w3.org/2000/svg">
<path d="M54.1568 32.0529H75.9739C76.923 32.0529 77.8361 31.6518 78.4789 30.9522C79.1222 30.252 79.4453 29.3075 79.3649 28.3603C79.0617 24.7802 77.4411 21.4615 74.8015 19.0155C74.0054 18.278 73.1379 17.6398 72.2155 17.1075C73.9962 15.2911 75.0963 12.8015 75.0963 10.059C75.0963 4.51254 70.5964 0 65.0653 0C59.5341 0 55.0342 4.51254 55.0342 10.0592C55.0342 12.8016 56.1343 15.2913 57.9152 17.1076C56.993 17.64 56.1252 18.2782 55.3294 19.0157C52.6896 21.4615 51.069 24.7803 50.766 28.3605C50.6857 29.3075 51.0086 30.2523 51.6519 30.9524C52.2947 31.6518 53.2077 32.0529 54.1568 32.0529ZM59.9561 10.0592C59.9561 7.22646 62.2481 4.92188 65.0653 4.92188C67.8825 4.92188 70.1744 7.22646 70.1744 10.0592C70.1744 12.892 67.8825 15.1965 65.0653 15.1965C62.2481 15.1965 59.9561 12.8919 59.9561 10.0592ZM58.6746 22.6259C60.4197 21.0089 62.6894 20.1183 65.0653 20.1183C67.4413 20.1183 69.7108 21.0089 71.4559 22.6259C72.781 23.8535 73.716 25.4148 74.1739 27.131H55.9567C56.4146 25.4148 57.3496 23.8537 58.6746 22.6259Z" fill="white"/>
<path d="M13.5279 32.0529H35.3448C36.2939 32.0529 37.207 31.6518 37.8498 30.9522C38.4931 30.252 38.8162 29.3075 38.7358 28.3603C38.4326 24.7802 36.812 21.4615 34.1724 19.0155C33.3765 18.278 32.5088 17.6398 31.5866 17.1075C33.3675 15.291 34.4675 12.8015 34.4675 10.059C34.4675 4.51254 29.9676 0 24.4364 0C18.9052 0 14.4053 4.51254 14.4053 10.0592C14.4053 12.8016 15.5053 15.2913 17.2862 17.1076C16.364 17.64 15.4963 18.2782 14.7005 19.0157C12.0607 21.4617 10.4401 24.7803 10.1371 28.3605C10.0568 29.3075 10.3797 30.2521 11.023 30.9524C11.6658 31.6518 12.5788 32.0529 13.5279 32.0529ZM19.3272 10.0592C19.3272 7.22646 21.6191 4.92188 24.4364 4.92188C27.2537 4.92188 29.5457 7.22646 29.5457 10.0592C29.5457 12.892 27.2537 15.1965 24.4364 15.1965C21.6191 15.1965 19.3272 12.8919 19.3272 10.0592ZM18.0459 22.6259C19.791 21.0089 22.0605 20.1183 24.4364 20.1183C26.8124 20.1183 29.0818 21.0089 30.827 22.6259C32.1521 23.8535 33.0871 25.4148 33.545 27.131H15.3277C15.7856 25.4148 16.7206 23.8537 18.0459 22.6259Z" fill="white"/>
<path d="M74.8014 59.9745C74.0054 59.237 73.1379 58.5988 72.2155 58.0664C73.9962 56.2501 75.0963 53.7604 75.0963 51.0181C75.0963 45.4714 70.5964 40.959 65.0653 40.959C59.5341 40.959 55.0342 45.4715 55.0342 51.0181C55.0342 53.7604 56.1343 56.2501 57.9152 58.0664C56.993 58.5988 56.1252 59.237 55.3294 59.9745C52.6896 62.4203 51.069 65.7391 50.766 69.3193C50.6857 70.2664 51.0086 71.2113 51.6519 71.9113C52.2947 72.6109 53.2075 73.012 54.1568 73.012H75.9738C76.9229 73.012 77.836 72.6109 78.4789 71.9113C79.1222 71.2113 79.4452 70.2666 79.3648 69.3193C79.0618 65.739 77.4412 62.4205 74.8014 59.9745ZM59.9563 51.0181C59.9563 48.1853 62.2482 45.8809 65.0655 45.8809C67.8826 45.8809 70.1746 48.1854 70.1746 51.0181C70.1746 53.8508 67.8826 56.1554 65.0655 56.1554C62.2482 56.1553 59.9563 53.8507 59.9563 51.0181ZM55.9569 68.09C56.4148 66.3737 57.3498 64.8124 58.6748 63.5847C60.4199 61.9677 62.6895 61.0771 65.0655 61.0771C67.4414 61.0771 69.7109 61.9677 71.4561 63.5847C72.7812 64.8124 73.7162 66.3737 74.1741 68.09H55.9569Z" fill="white"/>
<path d="M24.4371 36.9924C12.5147 36.9924 2.81511 46.693 2.81511 58.6165C2.81511 64.0929 4.8613 69.1005 8.22934 72.9146L1.3456 79.7991C0.384689 80.7602 0.384853 82.3185 1.34577 83.2796C1.82631 83.7598 2.45598 84 3.08581 84C3.71565 84 4.34565 83.7596 4.82603 83.2791L11.8879 76.2163C15.4287 78.7486 19.7619 80.2403 24.4371 80.2403C36.3595 80.2403 46.059 70.5398 46.059 58.6162C46.059 46.6926 36.3595 36.9924 24.4371 36.9924ZM24.4371 75.3186C15.2286 75.3186 7.73699 67.826 7.73699 58.6164C7.73699 49.4067 15.2286 41.9141 24.4371 41.9141C33.6456 41.9141 41.1372 49.4067 41.1372 58.6164C41.1372 67.826 33.6456 75.3186 24.4371 75.3186Z" fill="#FFD02A"/>
<path d="M31.3011 51.9561L21.5017 61.7566L17.5715 57.826C16.6105 56.8651 15.0524 56.8652 14.0911 57.8258C13.1302 58.7867 13.13 60.345 14.0909 61.3062L19.7614 66.9772C20.2421 67.4578 20.872 67.6981 21.5017 67.6981C22.1313 67.6981 22.7613 67.4578 23.2417 66.9774L23.2419 66.9772L34.7815 55.4362C35.7424 54.4752 35.7423 52.9169 34.7814 51.9558C33.8201 50.9949 32.262 50.9951 31.3011 51.9561Z" fill="#FFD02A"/>
</svg>
