<svg width="84" height="66" viewBox="0 0 84 66" fill="none" xmlns="http://www.w3.org/2000/svg">
<path d="M81.5337 60.9196H76.5692V28.0843C76.5692 26.7245 75.465 25.6221 74.1029 25.6221H60.4857C59.1237 25.6221 58.0195 26.7245 58.0195 28.0843V60.9196H51.275V18.3293C51.275 16.9696 50.1708 15.8672 48.8087 15.8672H35.1915C33.8294 15.8672 32.7252 16.9696 32.7252 18.3293V60.9196H25.9807V25.4786C25.9807 24.1189 24.8765 23.0165 23.5144 23.0165H9.89706C8.53499 23.0165 7.4308 24.1189 7.4308 25.4786V60.9196H2.46626C1.1042 60.9196 0 62.022 0 63.3818C0 64.7415 1.1042 65.8439 2.46626 65.8439H81.5337C82.8958 65.8439 84 64.7415 84 63.3818C84 62.022 82.8958 60.9196 81.5337 60.9196ZM12.3633 60.9196V27.9408H21.0482V60.9196H12.3633ZM37.6576 60.9196V20.7915H46.3424V60.9196H37.6576ZM62.952 60.9196V30.5464H71.6368V60.9196H62.952Z" fill="white"/>
<path d="M82.1969 9.5263C82.2787 8.49728 81.6789 7.2337 80.3055 6.91411L72.3503 4.98049C71.0284 4.65828 69.6974 5.46997 69.3763 6.79133C69.0551 8.11269 69.8658 9.44422 71.1871 9.76529L73.4372 10.3122L67.0589 14.2482L42.8746 0.479831C42.1793 0.0837516 41.3343 0.0504306 40.6104 0.390701L16.5709 11.6743L5.079 4.50234C3.92556 3.78191 2.40673 4.13384 1.68663 5.28744C0.966698 6.44088 1.31829 7.95971 2.4719 8.67981L15.1005 16.5612C15.8091 17.0035 16.6938 17.0564 17.4502 16.7014L41.5473 5.39053L65.8915 19.25C66.525 19.5822 67.4079 19.7544 68.4028 19.2055L76.1348 14.434L75.6199 16.8456C75.0532 20.0535 79.5943 20.9645 80.4355 17.8742L82.1423 9.88134C82.1616 9.76939 82.1689 9.78515 82.1969 9.5263Z" fill="#FFD02A"/>
</svg>
